<svg xmlns="http://www.w3.org/2000/svg" viewBox="0 0 1216.96 179.16"><defs><style>.cls-1{fill:#ffd264;}.cls-2{fill:#67d89e;}.cls-3{fill:#83deeb;}</style></defs><g id="圖層_2" data-name="圖層 2"><g id="封面"><path class="cls-1" d="M5.76,177.51C-.14,174-1.77,165.87,2.1,159.42L93.74,6.91c3.87-6.45,11.79-8.8,17.69-5.26s7.54,11.64,3.66,18.09L23.46,172.25C19.58,178.7,11.66,181.05,5.76,177.51Z"/><path class="cls-2" d="M96,177.51c-5.89-3.54-7.53-11.64-3.66-18.09L183.94,6.91c3.87-6.45,11.8-8.8,17.69-5.26s7.54,11.64,3.66,18.09L113.66,172.25C109.78,178.7,101.86,181.05,96,177.51Z"/><path class="cls-3" d="M186.17,177.51c-5.9-3.54-7.54-11.64-3.66-18.09L274.14,6.91c3.88-6.45,11.8-8.8,17.7-5.26s7.53,11.64,3.66,18.09L203.86,172.25C200,178.7,192.06,181.05,186.17,177.51Z"/><path d="M332.22,169.87a5.36,5.36,0,0,1-5.38-5.38v-146a5.46,5.46,0,0,1,1.57-4,5.17,5.17,0,0,1,3.81-1.57h54.72q22.65,0,37.35,6.95a48.11,48.11,0,0,1,22.2,20.63q7.51,13.7,7.73,33.42.45,9.87.45,17.49t-.45,17.27q-.45,20.86-7.62,34.43A44.8,44.8,0,0,1,425,163.25q-14.47,6.63-36.89,6.62ZM358,144.08h28.93q12.57,0,20.41-3.59a22.86,22.86,0,0,0,11.55-11.55q3.71-8,3.93-21c.14-4.49.26-8.41.33-11.78s.08-6.72,0-10.09-.19-7.21-.33-11.55q-.45-18.37-9.2-27.13t-27.81-8.75H358Z"/><path d="M486.29,34a5,5,0,0,1-5.38-5.38V12.43a5.42,5.42,0,0,1,1.46-3.81,5.08,5.08,0,0,1,3.92-1.57H506.7a5.46,5.46,0,0,1,4,1.57,5.22,5.22,0,0,1,1.57,3.81V28.58a5.11,5.11,0,0,1-1.57,3.92,5.67,5.67,0,0,1-4,1.46Zm.9,135.91a5.36,5.36,0,0,1-5.38-5.38V58.63a5.36,5.36,0,0,1,5.38-5.38h18.62a5.08,5.08,0,0,1,3.92,1.57,5.42,5.42,0,0,1,1.46,3.81V164.49a5.42,5.42,0,0,1-1.46,3.81,5.08,5.08,0,0,1-3.92,1.57Z"/><path d="M546.4,169.87a5.36,5.36,0,0,1-5.39-5.38V58.63a5.36,5.36,0,0,1,5.39-5.38h18.39a5.36,5.36,0,0,1,5.38,5.38v9.2a47.57,47.57,0,0,1,14.91-12Q594.17,51,607.62,51q13.68,0,23.78,6.17A41.06,41.06,0,0,1,647,74.55q5.49,11.22,5.5,26.92v63a5.36,5.36,0,0,1-5.39,5.38H627.36a5.36,5.36,0,0,1-5.38-5.38V102.81q0-13-6.4-20.41T597.08,75q-11.66,0-18.61,7.4t-7,20.41v61.68a5.34,5.34,0,0,1-5.38,5.38Z"/><path d="M689,169.87a5.36,5.36,0,0,1-5.38-5.38v-146a5.46,5.46,0,0,1,1.57-4A5.15,5.15,0,0,1,689,12.88h54.72q22.65,0,37.35,6.95a48.16,48.16,0,0,1,22.2,20.63q7.51,13.7,7.73,33.42.45,9.87.45,17.49T811,108.64q-.45,20.86-7.62,34.43a44.8,44.8,0,0,1-21.64,20.18q-14.47,6.63-36.89,6.62Zm25.79-25.79h28.93q12.57,0,20.41-3.59a22.86,22.86,0,0,0,11.55-11.55q3.7-8,3.93-21c.14-4.49.26-8.41.33-11.78s.08-6.72,0-10.09-.19-7.21-.33-11.55q-.45-18.37-9.2-27.13t-27.81-8.75H714.82Z"/><path d="M890.2,172.11q-17.94,0-30.16-6.28a43.42,43.42,0,0,1-18.62-17.72q-6.39-11.43-7.29-26.68c-.15-2.7-.22-6-.22-9.87s.07-7.18.22-9.87q.9-15.48,7.52-26.8a45.11,45.11,0,0,1,18.83-17.61Q872.71,51,890.2,51t29.72,6.28a45.31,45.31,0,0,1,18.84,17.61q6.6,11.33,7.51,26.8.22,4,.22,9.87c0,3.89-.07,7.17-.22,9.87q-.9,15.25-7.29,26.68a43.47,43.47,0,0,1-18.62,17.72Q908.14,172.12,890.2,172.11Zm0-22.2q11.88,0,18.39-7.51t7.18-22.09c.14-2.25.22-5.16.22-8.75s-.08-6.51-.22-8.75q-.67-14.36-7.18-22T890.2,73.21q-11.9,0-18.39,7.62t-7.18,22q-.23,3.36-.22,8.75c0,3.59.07,6.5.22,8.75q.68,14.58,7.18,22.09T890.2,149.91Z"/><path d="M976.77,169.87a5.36,5.36,0,0,1-5.38-5.38V58.63a5.36,5.36,0,0,1,5.38-5.38h18.39a5.36,5.36,0,0,1,5.38,5.38v9.2a47.61,47.61,0,0,1,14.92-12Q1024.53,51,1038,51q13.66,0,23.77,6.17a41,41,0,0,1,15.58,17.38q5.51,11.22,5.5,26.92v63a5.36,5.36,0,0,1-5.38,5.38h-19.74a5.36,5.36,0,0,1-5.38-5.38V102.81q0-13-6.39-20.41T1027.45,75q-11.66,0-18.61,7.4t-7,20.41v61.68a5.36,5.36,0,0,1-5.39,5.38Z"/><path d="M1161.57,172.11q-24.9,0-39.48-14.35t-15.69-40.82a55.92,55.92,0,0,1-.23-5.72,49.38,49.38,0,0,1,.23-5.49q.88-16.83,7.73-29.16a47.22,47.22,0,0,1,18.95-18.95Q1145.2,51,1161.57,51q18.17,0,30.5,7.52a47.59,47.59,0,0,1,18.61,20.86q6.28,13.34,6.28,30.83v4.71a5.15,5.15,0,0,1-1.57,3.81,5.46,5.46,0,0,1-4,1.58H1136.9v1.79a39.37,39.37,0,0,0,3,14.46,25,25,0,0,0,8.3,10.66,21.55,21.55,0,0,0,13.12,4,24.86,24.86,0,0,0,17.5-6.28,28.63,28.63,0,0,0,3.81-4,10.52,10.52,0,0,1,3.25-3.25,9.22,9.22,0,0,1,3.7-.56h19.29a5.25,5.25,0,0,1,3.7,1.34,3.78,3.78,0,0,1,1.23,3.37q-.22,3.58-3.7,8.74a43.44,43.44,0,0,1-10,10.09,56.21,56.21,0,0,1-16.26,8.19A70.66,70.66,0,0,1,1161.57,172.11Zm-24.67-70.64h49.56v-.68a37.08,37.08,0,0,0-2.91-15.25A24.15,24.15,0,0,0,1175,75.23a23.74,23.74,0,0,0-35.32,10.31,38.29,38.29,0,0,0-2.8,15.25Z"/></g></g></svg>